<?xml version="1.0" encoding="utf-8"?>
<!-- Generator: Adobe Illustrator 15.1.0, SVG Export Plug-In . SVG Version: 6.00 Build 0)  -->
<!DOCTYPE svg PUBLIC "-//W3C//DTD SVG 1.1//EN" "http://www.w3.org/Graphics/SVG/1.1/DTD/svg11.dtd">
<svg version="1.1" id="Capa_1" xmlns="http://www.w3.org/2000/svg" xmlns:xlink="http://www.w3.org/1999/xlink" x="0px" y="0px"
	 width="324.032px" height="74.395px" viewBox="0 0 324.032 74.395" enable-background="new 0 0 324.032 74.395"
	 xml:space="preserve">
<polygon fill="#242424" points="0,0.579 0,6.774 8.511,6.774 8.511,41.108 15.227,41.108 15.227,6.774 23.738,6.774 23.738,0.579 
	"/>
<polygon fill="#242424" points="53.75,0.579 53.75,17.37 36.901,17.37 36.901,0.579 30.127,0.579 30.127,41.108 36.901,41.108 
	36.901,24.202 53.75,24.202 53.75,41.108 60.524,41.108 60.524,0.579 "/>
<polygon fill="#242424" points="88.012,0.579 69.072,0.579 69.072,41.108 96.111,41.108 96.111,34.333 75.846,34.333 75.846,24.202 
	89.457,24.202 89.457,17.485 75.846,17.485 75.846,7.353 92.313,7.353 "/>
<g>
	<defs>
		<rect id="SVGID_1_" width="324.032" height="74.395"/>
	</defs>
	<clipPath id="SVGID_2_">
		<use xlink:href="#SVGID_1_"  overflow="visible"/>
	</clipPath>
	<path clip-path="url(#SVGID_2_)" fill="#242424" d="M159.311,35.086c-17.543,0-17.485-28.429,0-28.429
		C176.854,6.658,176.854,35.086,159.311,35.086 M159.311,0.058c-26.691,0-26.749,41.571,0,41.571
		C185.944,41.628,185.887,0.058,159.311,0.058"/>
	<path clip-path="url(#SVGID_2_)" fill="#242424" d="M205.63,12.39c0,3.995-4.111,4.863-5.906,5.037l-6.311-10.074h5.442
		C198.855,7.353,205.63,7.353,205.63,12.39 M212.403,12.39c0-11.811-13.548-11.811-13.548-11.811h-13.49v6.774l6.427,10.132h-6.427
		v23.623h6.773V24.201h3.88l10.537,16.907h7.933l-11-17.601C207.425,22.406,212.403,19.569,212.403,12.39"/>
	<polygon clip-path="url(#SVGID_2_)" fill="#242424" points="253.918,0.579 247.2,0.579 247.2,29.413 226.993,0.579 220.161,0.579 
		220.161,41.108 226.937,41.108 226.937,12.274 247.086,41.108 253.918,41.108 	"/>
	<polygon clip-path="url(#SVGID_2_)" fill="#242424" points="288.424,7.353 288.424,0.579 261.386,0.579 261.386,41.108 
		288.424,41.108 288.424,34.334 268.159,34.334 268.159,24.202 281.771,24.202 281.771,17.485 268.159,17.485 268.159,7.353 	"/>
	<path clip-path="url(#SVGID_2_)" fill="#242424" d="M315.174,12.39c0,3.995-4.112,4.863-5.907,5.037l-6.31-10.074h5.442
		C308.399,7.353,315.174,7.353,315.174,12.39 M321.948,12.39c0-11.811-13.549-11.811-13.549-11.811h-13.49v6.774l6.427,10.132
		h-6.427v23.623h6.772V24.201h3.88l10.537,16.907h7.934l-11-17.601C316.969,22.406,321.948,19.569,321.948,12.39"/>
	<path clip-path="url(#SVGID_2_)" fill="#242424" d="M210.058,70.517v-13.41c0-0.225-0.227-0.45-0.526-0.45h-2.802
		c-0.3,0-0.525,0.226-0.525,0.45v16.637c0,0.2,0.226,0.426,0.525,0.426h8.957c0.325,0,0.55-0.226,0.55-0.426v-2.776
		c0-0.226-0.225-0.45-0.55-0.45H210.058z M192.944,60.235c0.301,0,0.526-0.226,0.526-0.451v-2.677c0-0.225-0.226-0.45-0.526-0.45
		h-10.882c-0.326,0-0.526,0.226-0.526,0.45v16.637c0,0.2,0.2,0.426,0.526,0.426h11.082c0.326,0,0.551-0.226,0.551-0.426v-2.776
		c0-0.226-0.225-0.45-0.551-0.45h-7.78v-3.353h6.404c0.301,0,0.501-0.226,0.501-0.426v-2.702c0-0.225-0.2-0.449-0.501-0.449h-6.404
		v-3.353H192.944z M168.678,57.107c0-0.225-0.227-0.45-0.551-0.45h-9.758c-0.3,0-0.525,0.226-0.525,0.45v2.527
		c0,0.199,0.225,0.425,0.525,0.425h2.978v13.685c0,0.2,0.225,0.426,0.525,0.426h2.752c0.324,0,0.55-0.226,0.55-0.426V60.059h2.953
		c0.324,0,0.551-0.226,0.551-0.425V57.107z M139.456,70.867c-3.177,0-4.778-2.651-4.778-5.329c0-2.702,1.601-5.402,4.778-5.402
		c3.152,0,4.778,2.7,4.778,5.402C144.234,68.215,142.608,70.867,139.456,70.867 M139.456,56.607c-5.779,0-8.631,4.453-8.631,8.881
		c0,4.429,2.852,8.907,8.631,8.907c5.704,0,8.606-4.479,8.606-8.907C148.062,61.06,145.16,56.607,139.456,56.607 M115.489,56.657
		c-0.3,0-0.525,0.226-0.525,0.45v6.455h-5.855v-6.455c0-0.225-0.225-0.45-0.55-0.45h-2.777c-0.3,0-0.525,0.226-0.525,0.45v16.637
		c0,0.2,0.225,0.426,0.525,0.426h2.777c0.325,0,0.55-0.226,0.55-0.426V67.24h5.855v6.504c0,0.2,0.225,0.426,0.525,0.426h2.777
		c0.325,0,0.55-0.226,0.55-0.426V57.107c0-0.225-0.225-0.45-0.55-0.45H115.489z"/>
	<path clip-path="url(#SVGID_2_)" fill="#242424" d="M130.941,10.711l4.748-4.748C132.041,2.258,127.004,0,121.388,0
		c-11.804,0-20.221,8.535-20.314,20.644l12.159,19.457c2.501,1.03,5.257,1.586,8.155,1.586c5.616,0,10.653-2.258,14.301-5.906
		l-4.748-4.806c-2.432,2.432-5.848,3.939-9.553,3.939c-7.469,0-13.433-5.386-13.433-14.071c0-8.163,5.095-14.069,13.433-14.069
		C125.093,6.774,128.509,8.279,130.941,10.711"/>
</g>
</svg>
